<svg id="Layer_1" enable-background="new 0 0 512 512" height="512" viewBox="0 0 512 512" width="512" xmlns="http://www.w3.org/2000/svg"><g clip-rule="evenodd" fill-rule="evenodd"><path d="m256 0c-116.897 0-212 95.103-212 212 0 46.54 14.8 90.712 42.8 127.738 25.868 34.209 62.142 60.169 102.646 73.582l53.621 91.277c2.694 4.587 7.615 7.403 12.933 7.403s10.239-2.816 12.934-7.402l53.621-91.277c40.504-13.413 76.778-39.373 102.646-73.582 27.999-37.027 42.799-81.199 42.799-127.739 0-116.897-95.103-212-212-212zm52.243 386.379c-3.63 1.086-6.715 3.506-8.635 6.773l-43.608 74.234-43.608-74.233c-1.919-3.268-5.004-5.688-8.635-6.773-76.399-22.855-129.757-94.562-129.757-174.38 0-100.355 81.645-182 182-182s182 81.645 182 182c0 79.818-53.358 151.525-129.757 174.379z"/><path d="m388 182.268c-8.194 0-14.842 6.573-14.987 14.732h-15.108c-2.523-17.215-9.316-33.061-19.271-46.421l10.714-10.714c2.904 2.804 6.652 4.214 10.408 4.214 3.838 0 7.678-1.465 10.606-4.394 5.858-5.857 5.858-15.354 0-21.213l-20.835-20.836c-5.858-5.858-15.355-5.858-21.213 0-5.794 5.794-5.847 15.143-.179 21.015l-10.714 10.714c-13.36-9.956-29.206-16.749-46.421-19.272v-15.106c8.16-.144 14.733-6.792 14.733-14.987 0-8.284-6.716-15-15-15h-29.466c-8.284 0-15 6.716-15 15 0 8.194 6.573 14.843 14.733 14.987v15.108c-17.215 2.523-33.061 9.316-46.42 19.272l-10.714-10.714c5.668-5.872 5.615-15.221-.179-21.015-5.858-5.857-15.355-5.857-21.213 0l-20.835 20.836c-5.857 5.858-5.857 15.355 0 21.213 2.929 2.929 6.768 4.394 10.606 4.394 3.755 0 7.505-1.412 10.408-4.214l10.714 10.714c-9.956 13.359-16.748 29.205-19.271 46.42h-15.109c-.144-8.159-6.793-14.732-14.987-14.732-8.284 0-15 6.716-15 15v29.465c0 8.284 6.716 15 15 15 8.194 0 14.842-6.573 14.987-14.732h15.109c2.523 17.215 9.316 33.06 19.271 46.42l-10.714 10.714c-5.871-5.668-15.22-5.615-21.015.179-5.857 5.858-5.857 15.355 0 21.213l10.411 10.41c.002.002.004.005.007.008s.005.004.008.007l10.41 10.41c2.929 2.929 6.768 4.394 10.606 4.394s7.678-1.465 10.606-4.394c5.794-5.794 5.847-15.143.179-21.014l10.714-10.714c13.359 9.956 29.205 16.749 46.42 19.271v15.108c-8.16.144-14.733 6.792-14.733 14.987 0 8.284 6.716 15 15 15h29.466c8.284 0 15-6.716 15-15 0-8.194-6.573-14.843-14.733-14.987v-15.108c17.215-2.523 33.061-9.316 46.42-19.271l10.714 10.714c-5.668 5.871-5.615 15.221.179 21.014 2.929 2.93 6.767 4.394 10.606 4.394 3.838 0 7.678-1.465 10.606-4.394l10.41-10.41c.002-.002.005-.004.008-.007s.004-.005.007-.008l10.411-10.41c5.858-5.857 5.858-15.354 0-21.213-5.795-5.796-15.144-5.847-21.015-.179l-10.714-10.714c9.956-13.359 16.749-29.205 19.272-46.42h15.108c.144 8.159 6.793 14.732 14.987 14.732 8.284 0 15-6.716 15-15v-29.465c.002-8.286-6.714-15.001-14.998-15.001zm-74.623 74.782c.719-4.576-.668-9.419-4.195-12.946-5.858-5.858-15.355-5.858-21.213 0s-5.858 15.355 0 21.213c3.515 3.515 8.338 4.904 12.9 4.201-10.201 7.976-22.562 13.297-36.051 14.929 3.737-2.733 6.181-7.136 6.181-12.102 0-8.261-6.738-15-15-15s-15 6.739-15 15c0 4.966 2.445 9.369 6.181 12.102-13.489-1.633-25.85-6.954-36.051-14.929 4.563.703 9.385-.687 12.899-4.201 5.858-5.858 5.858-15.355 0-21.213s-15.355-5.858-21.213 0c-3.526 3.526-4.914 8.369-4.195 12.945-8.06-10.244-13.437-22.682-15.075-36.264 2.717 3.837 7.181 6.349 12.241 6.349 8.284 0 15-6.715 15-15 0-8.284-6.716-15-15-15-5.084 0-9.57 2.536-12.282 6.405 1.593-13.736 7.013-26.313 15.164-36.651-.841 4.672.536 9.665 4.147 13.276 5.858 5.858 15.355 5.858 21.213 0s5.858-15.355 0-21.213c-3.623-3.623-8.637-4.999-13.322-4.14 10.391-8.247 23.063-13.726 36.909-15.317-3.988 2.701-6.617 7.267-6.617 12.428 0 8.262 6.738 15 15 15s15-6.738 15-15c0-5.161-2.63-9.727-6.617-12.428 13.846 1.591 26.519 7.07 36.91 15.317-4.685-.858-9.7.517-13.323 4.14-5.858 5.858-5.858 15.355 0 21.213s15.355 5.858 21.213 0c3.611-3.611 4.988-8.605 4.147-13.277 8.152 10.338 13.572 22.916 15.165 36.653-2.713-3.87-7.198-6.406-12.283-6.406-8.284 0-15 6.716-15 15s6.716 15 15 15c5.06 0 9.525-2.513 12.241-6.35-1.635 13.583-7.013 26.022-15.074 36.266z"/><path d="m256 197c-8.262 0-15 6.738-15 15s6.738 15 15 15 15-6.738 15-15-6.738-15-15-15z"/></g></svg>